<svg width="151" height="56" viewBox="0 0 151 56" fill="none" xmlns="http://www.w3.org/2000/svg">
<ellipse cx="6.6764" cy="6.16402" rx="6.6764" ry="6.16402" transform="matrix(0.99997 0.00776473 0.00776473 -0.99997 6.91541 54.6836)" fill="#FF9F9F"/>
<ellipse cx="6.6764" cy="6.16402" rx="6.6764" ry="6.16402" transform="matrix(0.99997 0.00776473 0.00776473 -0.99997 130.549 55.6436)" fill="#F257FF"/>
<ellipse cx="6.6764" cy="6.16402" rx="6.6764" ry="6.16402" transform="matrix(0.99997 0.00776473 0.00776473 -0.99997 105.822 55.4517)" fill="#B455FF"/>
<ellipse cx="6.6764" cy="6.16402" rx="6.6764" ry="6.16402" transform="matrix(0.99997 0.00776473 0.00776473 -0.99997 81.0953 55.2595)" fill="#6BDCFF"/>
<ellipse cx="6.6764" cy="6.16402" rx="6.6764" ry="6.16402" transform="matrix(0.99997 0.00776473 0.00776473 -0.99997 56.3687 55.0675)" fill="#95FF70"/>
<ellipse cx="6.6764" cy="6.16402" rx="6.6764" ry="6.16402" transform="matrix(0.99997 0.00776473 0.00776473 -0.99997 31.6421 54.8756)" fill="#FBE260"/>
<path d="M24.1365 13.6769L21.0298 16.6946C19.1014 14.6138 16.8404 13.5612 14.2467 13.5368C11.9864 13.5155 10.0836 14.2476 8.53827 15.7331C7.00337 17.2187 6.22581 19.0344 6.20558 21.1801C6.18468 23.3988 6.95859 25.2864 8.52733 26.8429C10.0961 28.3994 12.0418 29.1886 14.3646 29.2105C15.875 29.2247 17.1488 28.919 18.186 28.2933C19.2336 27.6678 20.0814 26.6809 20.7296 25.3328L14.0736 25.2701L14.1124 21.1609L25.6744 21.2698L25.6965 22.2388C25.6775 24.2492 25.1388 26.1504 24.0802 27.9426C23.0216 29.7348 21.6597 31.097 19.9946 32.0293C18.3295 32.9616 16.3824 33.4172 14.1533 33.3962C11.768 33.3737 9.64276 32.838 7.77756 31.7892C5.92287 30.73 4.45771 29.2369 3.38207 27.31C2.31685 25.3832 1.79469 23.3105 1.8156 21.0919C1.84426 18.0503 2.87435 15.4141 4.90588 13.1831C7.31642 10.5287 10.4331 9.21942 14.2558 9.25545C16.2557 9.27429 18.1219 9.66169 19.8545 10.4176C21.3173 11.0564 22.7446 12.1429 24.1365 13.6769ZM46.7214 25.859L33.0189 25.7299C33.2054 26.94 33.7224 27.9085 34.5697 28.6352C35.4276 29.3517 36.5232 29.7162 37.8564 29.7287C39.4501 29.7438 40.8251 29.1994 41.9814 28.0957L45.5591 29.817C44.6513 31.0793 43.5695 32.0119 42.3138 32.6146C41.0582 33.207 39.571 33.4951 37.8523 33.4789C35.1858 33.4537 33.0219 32.5948 31.3607 30.902C29.6996 29.1987 28.881 27.0816 28.9048 24.5504C28.9293 21.9568 29.7828 19.8137 31.4655 18.1211C33.1587 16.4183 35.2657 15.5787 37.7864 15.6025C40.4634 15.6277 42.6323 16.5075 44.2931 18.242C45.954 19.9661 46.7712 22.2343 46.7447 25.0467L46.7214 25.859ZM42.472 22.4594C42.1997 21.5089 41.6497 20.7328 40.822 20.1313C40.0047 19.5298 39.0492 19.2239 37.9555 19.2136C36.7681 19.2024 35.7233 19.5259 34.8212 20.1841C34.2548 20.5954 33.7271 21.3249 33.238 22.3724L42.472 22.4594ZM61.1451 18.6352L58.4797 21.2508C57.4169 20.1783 56.448 19.6379 55.573 19.6296C55.0939 19.6251 54.7179 19.7257 54.4451 19.9315C54.1724 20.1269 54.0347 20.3756 54.0318 20.6776C54.0297 20.9068 54.111 21.1211 54.2758 21.3206C54.4511 21.5098 54.8757 21.7742 55.5496 22.1139L57.1047 22.9098C58.7428 23.7378 59.8651 24.5765 60.4717 25.426C61.0783 26.2755 61.3763 27.268 61.3656 28.4033C61.3514 29.9137 60.7822 31.1688 59.6582 32.1687C58.5445 33.1686 57.0554 33.6598 55.1909 33.6423C52.7119 33.6189 50.7419 32.6315 49.2811 30.6802L51.9329 27.8457C52.4274 28.4337 53.0062 28.9131 53.6694 29.284C54.3432 29.6445 54.9404 29.8272 55.4612 29.8321C56.0237 29.8374 56.4781 29.7063 56.8244 29.4387C57.1707 29.1711 57.3455 28.8603 57.3488 28.5061C57.355 27.8499 56.7413 27.2035 55.5076 26.5668L54.077 25.8345C51.3401 24.4233 49.9816 22.676 50.0012 20.5928C50.0138 19.2491 50.5402 18.1082 51.5804 17.17C52.631 16.2215 53.9636 15.7549 55.5781 15.7701C56.6822 15.7805 57.7164 16.0351 58.6804 16.5338C59.6551 17.0221 60.4766 17.7226 61.1451 18.6352ZM69.569 16.3395L69.5513 18.2144C70.3294 17.4509 71.1681 16.8806 72.0676 16.5037C72.967 16.1267 73.9271 15.943 74.9479 15.9527C77.1665 15.9736 79.044 16.8298 80.5802 18.5215C82.1164 20.2131 82.8721 22.3714 82.8474 24.9962C82.8235 27.5274 82.0015 29.6395 80.3813 31.3327C78.7612 33.0154 76.8523 33.8464 74.6545 33.8257C73.6753 33.8165 72.7655 33.636 71.9251 33.2843C71.0847 32.9222 70.2516 32.3414 69.4257 31.5419L69.3502 39.5572L65.116 39.5173L65.3348 16.2996L69.569 16.3395ZM74.0202 19.8816C72.6765 19.8689 71.5577 20.3167 70.6636 21.225C69.7696 22.1333 69.3157 23.327 69.3017 24.8061C69.2875 26.3164 69.7186 27.5445 70.5952 28.4903C71.4718 29.4257 72.582 29.8997 73.9257 29.9124C75.2277 29.9247 76.3259 29.461 77.2202 28.5215C78.1249 27.5821 78.5842 26.378 78.598 24.9093C78.6118 23.4511 78.1855 22.2543 77.3193 21.319C76.4532 20.3733 75.3535 19.8942 74.0202 19.8816ZM99.5008 16.6216L103.751 16.6616L103.59 33.6608L99.3406 33.6208L99.3575 31.824C98.5168 32.6078 97.6729 33.1728 96.8258 33.519C95.9893 33.8549 95.0815 34.0182 94.1023 34.009C91.9045 33.9882 90.0116 33.1214 88.4235 31.4085C86.8355 29.6851 86.0534 27.5578 86.0773 25.0267C86.102 22.4018 86.8983 20.2582 88.4661 18.5958C90.0339 16.9334 91.9271 16.1127 94.1458 16.1336C95.1666 16.1432 96.123 16.3449 97.0152 16.7388C97.9074 17.1326 98.73 17.7185 99.4831 18.4965L99.5008 16.6216ZM94.9836 20.0791C93.6608 20.0667 92.5575 20.525 91.6737 21.4543C90.79 22.3731 90.3412 23.5616 90.3275 25.0199C90.3137 26.4885 90.745 27.701 91.6214 28.6572C92.5083 29.6135 93.6027 30.0978 94.9047 30.1101C96.2484 30.1228 97.3673 29.6697 98.2614 28.751C99.1557 27.8219 99.6099 26.6022 99.6241 25.0918C99.6381 23.6127 99.2067 22.4107 98.3299 21.4857C97.4532 20.5608 96.3378 20.0919 94.9836 20.0791ZM110.281 9.72283C111.031 9.7299 111.669 10.0068 112.195 10.5534C112.731 11.1001 112.996 11.7589 112.989 12.5297C112.982 13.2901 112.71 13.9386 112.173 14.4753C111.637 15.0015 110.999 15.2611 110.26 15.2541C109.499 15.247 108.851 14.97 108.314 14.4233C107.788 13.8662 107.529 13.1971 107.536 12.4158C107.543 11.6659 107.815 11.0278 108.351 10.5016C108.888 9.97534 109.531 9.71576 110.281 9.72283ZM108.074 16.7023L112.355 16.7427L112.195 33.7419L107.914 33.7016L108.074 16.7023ZM116.71 16.7837L120.96 16.8238L120.944 18.5581C121.92 17.7547 122.8 17.2005 123.584 16.8954C124.379 16.5799 125.188 16.4261 126.011 16.4339C127.698 16.4498 129.125 17.0518 130.291 18.2399C131.271 19.2492 131.752 20.7329 131.733 22.6912L131.627 33.9251L127.409 33.8853L127.479 26.4325C127.498 24.4013 127.417 23.0516 127.236 22.3832C127.065 21.7149 126.752 21.2067 126.297 20.8586C125.853 20.5003 125.297 20.3179 124.63 20.3116C123.766 20.3035 123.018 20.5881 122.388 21.1655C121.768 21.7326 121.333 22.5255 121.084 23.544C120.954 24.074 120.881 25.2244 120.864 26.9952L120.8 33.823L116.55 33.783L116.71 16.7837ZM136.983 10.7089L141.232 10.7489L141.173 17.0143L143.704 17.0381L143.67 20.7098L141.139 20.686L141.013 34.0135L136.763 33.9735L136.889 20.6459L134.702 20.6253L134.736 16.9536L136.924 16.9742L136.983 10.7089Z" fill="black"/>
</svg>
